<?xml version="1.0" standalone="no"?>
<!DOCTYPE svg PUBLIC "-//W3C//DTD SVG 20010904//EN"
 "http://www.w3.org/TR/2001/REC-SVG-20010904/DTD/svg10.dtd">
<svg version="1.0" xmlns="http://www.w3.org/2000/svg"
 width="3240.000000pt" height="3240.000000pt" viewBox="0 0 3240.000000 3240.000000"
 preserveAspectRatio="xMidYMid meet">
<metadata>
Created by potrace 1.11, written by Peter Selinger 2001-2013
</metadata>
<g transform="translate(0.000000,3240.000000) scale(0.100000,-0.100000)"
fill="#000000" stroke="none">
<path d="M20410 31891 c-251 -67 -491 -304 -725 -713 -68 -120 -233 -447 -310
-618 -62 -136 -244 -490 -276 -538 -16 -23 -29 -46 -29 -49 0 -3 -11 -21 -25
-39 -14 -18 -25 -35 -25 -39 0 -3 -4 -11 -10 -18 -5 -7 -39 -50 -76 -97 -270
-343 -641 -586 -999 -656 -11 -2 -31 -6 -45 -9 -65 -14 -158 -20 -295 -20
-130 0 -189 4 -315 20 -59 8 -240 49 -390 89 -66 18 -353 123 -425 156 -23 11
-66 29 -96 40 -63 25 -477 229 -594 293 -44 24 -109 59 -145 79 -65 35 -477
271 -554 317 -23 14 -57 34 -78 45 -20 12 -74 43 -120 70 -80 47 -170 99 -233
136 -16 9 -54 31 -83 49 -29 17 -55 31 -58 31 -3 0 -18 8 -32 19 -15 10 -53
32 -84 50 -98 53 -160 87 -248 136 -47 26 -177 93 -290 149 -179 89 -240 117
-385 182 -170 75 -493 185 -645 219 -266 60 -381 73 -615 70 -110 -2 -216 -6
-235 -9 -209 -37 -344 -78 -505 -151 -295 -135 -595 -400 -837 -740 -38 -54
-158 -243 -158 -250 0 -2 -14 -28 -32 -57 -51 -85 -161 -311 -291 -593 -81
-176 -227 -464 -283 -556 -111 -182 -241 -339 -362 -436 -26 -21 -49 -41 -52
-44 -17 -19 -172 -106 -242 -135 -174 -74 -477 -148 -688 -169 -36 -4 -81 -9
-100 -11 -42 -6 -406 -5 -471 0 -64 6 -167 16 -209 21 -19 3 -55 7 -79 10 -42
5 -82 11 -131 20 -14 2 -43 7 -65 10 -23 3 -52 8 -65 10 -22 5 -59 11 -120 19
-43 7 -113 19 -180 31 -41 8 -93 17 -115 20 -23 3 -50 7 -60 9 -11 2 -40 7
-65 10 -25 3 -54 8 -65 10 -11 2 -47 7 -80 11 -33 5 -67 9 -75 10 -8 1 -44 5
-80 9 -36 4 -81 9 -100 11 -133 16 -227 20 -465 20 -316 0 -399 -6 -518 -39
-382 -105 -613 -427 -711 -986 -3 -19 -8 -44 -10 -55 -2 -11 -9 -56 -16 -100
-6 -44 -13 -91 -15 -105 -3 -14 -9 -61 -15 -105 -6 -44 -12 -93 -15 -110 -2
-16 -7 -52 -11 -80 -3 -27 -7 -57 -9 -65 -1 -8 -6 -35 -9 -60 -6 -35 -29 -153
-50 -255 -4 -16 -28 -99 -34 -115 -3 -8 -6 -17 -7 -20 -39 -112 -97 -212 -157
-269 -82 -77 -264 -151 -530 -217 -31 -7 -136 -29 -188 -39 -14 -3 -47 -9 -75
-15 -27 -5 -66 -12 -85 -15 -19 -3 -48 -8 -65 -11 -32 -5 -55 -9 -125 -19 -55
-8 -91 -14 -127 -19 -16 -3 -48 -8 -73 -11 -25 -3 -56 -8 -70 -10 -14 -2 -45
-7 -70 -10 -25 -3 -85 -13 -135 -21 -49 -8 -103 -17 -120 -20 -16 -2 -41 -7
-55 -9 -54 -11 -76 -15 -105 -21 -144 -26 -243 -91 -320 -209 -36 -56 -70
-141 -79 -200 -10 -60 -8 -213 3 -272 6 -29 13 -74 17 -100 11 -86 84 -236
199 -408 157 -235 249 -335 823 -897 94 -93 206 -207 248 -255 43 -49 81 -90
84 -93 4 -3 35 -43 69 -89 132 -178 200 -324 237 -503 2 -13 5 -66 5 -118 3
-292 -126 -449 -446 -546 -44 -14 -93 -27 -110 -29 -16 -3 -52 -10 -80 -15
-220 -40 -660 -47 -1050 -15 -64 6 -131 11 -235 20 -36 3 -81 7 -100 10 -19 2
-71 7 -115 10 -44 3 -91 8 -105 10 -79 12 -249 19 -420 19 -179 -1 -229 -4
-300 -19 -14 -3 -34 -7 -45 -9 -41 -8 -138 -46 -179 -70 -92 -54 -198 -176
-210 -243 -3 -11 -9 -36 -14 -55 -13 -47 -8 -183 7 -233 18 -55 74 -179 83
-183 5 -2 8 -8 8 -13 0 -13 103 -152 154 -209 102 -111 276 -275 401 -375 33
-27 62 -51 65 -55 9 -12 292 -224 415 -311 127 -91 318 -217 475 -314 173
-108 276 -188 424 -333 323 -316 484 -664 395 -849 -65 -135 -289 -253 -593
-314 -56 -11 -110 -22 -121 -25 -11 -2 -36 -7 -55 -10 -19 -3 -154 -31 -300
-61 -146 -30 -276 -56 -290 -59 -14 -3 -43 -10 -65 -16 -22 -5 -47 -11 -55
-13 -69 -14 -323 -84 -450 -123 -239 -75 -462 -173 -605 -268 -83 -54 -200
-161 -247 -224 -147 -201 -153 -466 -15 -690 64 -106 144 -192 300 -326 36
-31 219 -158 422 -293 248 -165 328 -221 333 -233 2 -5 8 -8 13 -8 15 0 204
-155 293 -239 189 -182 292 -367 280 -503 -8 -101 -26 -147 -146 -388 -43 -85
-86 -168 -96 -185 -37 -65 -123 -206 -195 -320 -127 -201 -242 -395 -295 -495
-102 -195 -188 -454 -208 -622 -3 -35 -8 -74 -10 -88 -6 -37 -5 -258 1 -305
15 -124 17 -136 41 -253 34 -167 138 -461 221 -625 102 -203 212 -356 368
-512 131 -131 228 -207 396 -307 201 -120 349 -186 749 -333 250 -92 320 -119
367 -140 17 -8 34 -15 37 -15 19 0 290 -137 381 -193 42 -26 201 -146 231
-174 120 -115 146 -256 87 -473 -8 -30 -15 -59 -17 -65 -16 -65 -56 -176 -151
-415 -155 -392 -210 -562 -230 -705 -3 -27 -9 -66 -11 -85 -12 -90 -3 -266 17
-317 5 -13 7 -23 4 -23 -15 0 61 -174 108 -248 104 -163 310 -315 537 -396 80
-29 247 -71 320 -80 183 -23 218 -25 540 -31 297 -5 444 -11 520 -20 148 -19
271 -71 314 -134 23 -33 60 -121 51 -121 -2 0 1 -15 6 -32 14 -48 11 -364 -5
-525 -3 -35 -9 -91 -12 -125 -3 -35 -7 -74 -9 -88 -2 -14 -7 -54 -10 -90 -3
-36 -8 -76 -10 -90 -2 -14 -6 -59 -10 -100 -4 -41 -8 -86 -10 -100 -6 -39 -18
-248 -18 -320 -1 -521 188 -837 573 -959 119 -38 174 -44 365 -45 142 -1 236
5 315 18 14 3 43 7 64 11 21 3 48 7 60 10 12 3 32 7 46 9 14 2 99 20 190 40
91 19 176 38 190 40 14 3 34 7 45 9 11 3 40 8 65 13 25 4 47 8 50 9 3 1 28 5
55 9 28 4 66 12 85 16 19 5 58 12 85 15 28 4 57 8 65 10 8 3 65 11 125 20 61
9 121 18 135 20 14 2 52 7 85 11 33 3 68 8 77 9 9 2 48 7 85 10 37 4 79 8 93
11 23 3 98 10 225 19 334 25 793 24 995 -1 19 -2 55 -6 80 -9 113 -12 137 -15
280 -41 25 -4 47 -8 50 -9 3 -1 32 -7 65 -14 159 -34 364 -103 516 -175 299
-141 510 -377 885 -991 308 -504 354 -577 430 -692 242 -361 463 -592 686
-717 87 -48 237 -103 331 -122 10 -2 26 -5 35 -8 9 -3 40 -8 67 -11 28 -3 75
-9 106 -13 65 -10 349 -8 429 2 173 22 191 25 345 56 55 11 165 38 245 60 80
23 150 42 155 44 42 11 221 73 320 110 66 25 123 46 126 46 4 0 28 10 55 22
27 12 51 22 54 23 8 0 142 55 163 66 10 5 39 18 66 29 52 20 529 231 649 286
41 19 75 34 77 34 3 0 35 14 71 31 232 106 389 167 744 289 157 54 292 100
300 103 107 40 444 136 530 152 8 1 33 6 55 10 69 14 87 15 235 19 133 4 178
-1 285 -28 168 -42 347 -165 511 -351 116 -130 301 -391 441 -621 42 -69 113
-190 235 -404 253 -442 356 -616 440 -744 32 -49 58 -92 58 -97 0 -4 4 -9 8
-11 5 -2 28 -32 52 -68 124 -184 331 -408 460 -500 19 -14 42 -32 53 -41 32
-29 190 -106 272 -133 99 -33 213 -41 309 -21 244 51 425 237 570 587 32 78
117 340 130 400 3 12 10 43 17 68 6 25 12 52 14 60 2 8 12 51 23 95 12 44 46
202 76 350 30 149 64 314 76 369 12 54 23 107 25 118 3 11 16 66 30 122 74
287 147 434 334 676 101 131 220 258 546 585 165 165 336 341 380 390 44 48
87 96 97 106 43 45 172 215 235 309 65 98 95 150 203 355 131 251 325 475 490
568 136 76 236 101 405 101 95 -1 176 -10 265 -31 36 -8 72 -16 80 -18 24 -6
170 -51 237 -74 54 -18 178 -67 568 -226 50 -20 108 -45 130 -55 116 -51 440
-162 547 -186 10 -2 26 -6 36 -8 63 -15 112 -25 147 -30 23 -4 52 -9 65 -12
45 -11 354 -13 415 -3 90 15 95 16 164 34 117 30 296 111 376 170 149 110 237
191 330 306 145 179 268 479 301 734 3 22 7 46 10 53 19 59 26 512 11 722 -5
63 -10 117 -12 120 -2 3 -6 43 -10 90 -4 47 -8 87 -10 90 -2 3 -6 34 -10 70
-4 36 -8 67 -10 70 -2 3 -6 30 -9 60 -3 30 -8 66 -11 80 -3 13 -7 42 -11 65
-3 22 -17 105 -30 185 -14 80 -27 159 -30 175 -2 17 -9 55 -14 85 -14 82 -19
111 -25 155 -4 22 -9 54 -11 70 -3 17 -7 42 -9 58 -2 15 -9 63 -15 107 -35
256 -43 355 -44 530 0 171 8 254 35 352 52 186 155 282 352 329 108 26 215 49
252 54 17 3 55 9 85 15 46 9 200 32 300 45 14 2 63 6 110 10 47 3 92 8 100 10
8 2 49 7 90 10 41 3 100 8 130 10 30 3 91 7 135 10 74 5 110 8 240 20 28 2 82
7 120 10 39 3 79 7 90 9 11 2 52 7 90 10 39 4 77 9 85 11 8 2 37 6 63 10 49 6
192 34 283 55 107 26 319 102 426 154 109 52 268 152 360 226 70 56 220 209
285 290 173 215 304 448 438 780 52 129 148 403 160 460 2 8 14 49 25 90 12
41 23 83 25 93 3 10 6 26 9 35 3 9 7 28 10 42 2 14 14 67 25 119 11 51 23 119
27 149 3 31 7 59 9 63 18 29 28 518 13 644 -39 328 -187 677 -391 920 -70 83
-207 218 -299 292 -89 73 -290 210 -398 271 -41 24 -82 47 -90 53 -22 13 -444
222 -515 254 -33 15 -116 52 -185 82 -69 30 -158 70 -198 89 -40 19 -75 34
-78 34 -3 0 -52 22 -110 50 -58 27 -107 50 -109 50 -7 0 -351 172 -415 207
-227 125 -421 252 -570 372 -205 165 -262 259 -255 422 4 89 8 108 41 201 55
152 141 299 295 503 54 72 108 141 121 155 13 14 36 41 52 60 119 145 572 605
1020 1035 445 428 617 607 797 835 270 341 359 601 309 900 -62 378 -333 662
-810 852 -106 42 -320 109 -390 122 -14 2 -54 11 -90 19 -36 8 -81 18 -100 21
-19 3 -44 7 -55 10 -11 2 -56 9 -100 16 -44 6 -90 13 -103 15 -13 2 -53 7 -90
10 -37 4 -77 8 -90 10 -12 2 -64 7 -115 10 -50 4 -108 9 -127 12 -19 2 -211 6
-427 8 -437 4 -452 6 -596 76 -144 71 -286 196 -490 436 -48 56 -139 152 -203
215 -246 240 -355 440 -354 654 0 106 6 141 41 249 65 194 203 406 434 664 65
73 368 376 471 471 396 367 434 403 593 560 368 364 550 614 677 928 19 46 36
96 39 109 2 14 9 39 14 56 25 78 36 166 36 297 0 130 -8 198 -32 285 -90 327
-332 616 -733 877 -236 154 -533 307 -905 468 -104 45 -203 88 -220 95 -16 7
-59 25 -95 40 -36 14 -78 32 -95 40 -16 7 -127 54 -245 105 -249 106 -532 243
-675 326 -55 32 -102 61 -105 64 -3 3 -23 17 -44 30 -81 49 -230 186 -328 300
-142 167 -260 359 -468 765 -195 379 -295 550 -438 744 -198 269 -411 386
-687 377 -60 -2 -123 -7 -140 -11 -187 -40 -378 -140 -595 -313 -104 -83 -325
-300 -435 -427 -39 -44 -72 -82 -75 -85 -3 -3 -25 -30 -50 -60 -25 -30 -47
-57 -50 -60 -4 -4 -159 -199 -207 -260 -19 -24 -127 -155 -133 -160 -3 -3 -19
-21 -35 -41 -61 -72 -131 -153 -154 -178 -12 -14 -51 -57 -85 -95 -70 -80
-327 -339 -402 -406 -200 -179 -394 -306 -501 -329 -40 -8 -48 -6 -110 31
-149 89 -238 179 -315 318 -21 38 -57 130 -64 165 -1 6 -7 31 -13 57 -21 90
-26 155 -25 328 1 155 7 258 19 340 2 14 7 45 10 70 3 25 10 70 15 100 5 30
12 75 15 100 4 24 8 47 10 50 2 3 6 30 10 60 4 30 9 58 11 61 2 4 6 24 9 45 3
22 8 50 11 64 2 14 6 36 9 50 3 14 7 36 10 50 2 14 7 41 10 60 3 19 8 42 10
50 2 8 7 35 10 60 3 25 8 52 10 60 2 8 7 35 10 60 3 25 8 58 11 74 18 111 24
393 10 526 -4 41 -9 92 -11 113 -2 21 -6 50 -9 65 -3 15 -8 43 -11 62 -5 31
-14 71 -31 145 -3 11 -7 31 -10 45 -10 51 -75 233 -106 298 -79 167 -217 328
-328 385 -128 65 -272 82 -400 48z"/>
</g>
</svg>
